0
SECTION
2
HEADER
9
$INSUNITS
70
4
9
$ACADVER
1
AC1014
9
$HANDSEED
5
FFFF
0
ENDSEC
0
SECTION
2
TABLES
0
TABLE
2
VPORT
5
8
100
AcDbSymbolTable
0
ENDTAB
0
TABLE
2
LTYPE
5
5
100
AcDbSymbolTable
0
LTYPE
5
14
100
AcDbSymbolTableRecord
100
AcDbLinetypeTableRecord
2
BYBLOCK
70
0
0
LTYPE
5
15
100
AcDbSymbolTableRecord
100
AcDbLinetypeTableRecord
2
BYLAYER
70
0
0
LTYPE
5
16
100
AcDbSymbolTableRecord
100
AcDbLinetypeTableRecord
2
DASHED
70
0
3
Dashed __ __ __ __ __ __ __ __ __ __ __ __ __ _
72
65
73
2
40
0.75
49
0.5
74
0
49
-0.25
74
0
0
ENDTAB
0
TABLE
2
LAYER
5
2
100
AcDbSymbolTable
70
2
0
LAYER
5
50
100
AcDbSymbolTableRecord
100
AcDbLayerTableRecord
2
0
70
0
62
7
6
CONTINUOUS
0
ENDTAB
0
TABLE
2
STYLE
5
3
100
AcDbSymbolTable
70
1
0
STYLE
5
11
100
AcDbSymbolTableRecord
100
AcDbTextStyleTableRecord
2
STANDARD
70
0
0
ENDTAB
0
TABLE
2
VIEW
5
6
100
AcDbSymbolTable
70
0
0
ENDTAB
0
TABLE
2
UCS
5
7
100
AcDbSymbolTable
70
0
0
ENDTAB
0
TABLE
2
APPID
5
9
100
AcDbSymbolTable
70
2
0
APPID
5
12
100
AcDbSymbolTableRecord
100
AcDbRegAppTableRecord
2
ACAD
70
0
0
ENDTAB
0
TABLE
2
DIMSTYLE
5
A
100
AcDbSymbolTable
70
1
0
ENDTAB
0
TABLE
2
BLOCK_RECORD
5
1
100
AcDbSymbolTable
70
1
0
BLOCK_RECORD
5
1F
100
AcDbSymbolTableRecord
100
AcDbBlockTableRecord
2
*MODEL_SPACE
0
BLOCK_RECORD
5
1B
100
AcDbSymbolTableRecord
100
AcDbBlockTableRecord
2
*PAPER_SPACE
0
ENDTAB
0
ENDSEC
0
SECTION
2
BLOCKS
0
BLOCK
5
20
100
AcDbEntity
100
AcDbBlockBegin
2
*MODEL_SPACE
0
ENDBLK
5
21
100
AcDbEntity
100
AcDbBlockEnd
0
BLOCK
5
1C
100
AcDbEntity
100
AcDbBlockBegin
2
*PAPER_SPACE
0
ENDBLK
5
1D
100
AcDbEntity
100
AcDbBlockEnd
0
ENDSEC
0
SECTION
2
ENTITIES
0
CIRCLE
5
100
100
AcDbEntity
8
0
100
AcDbCircle
10
135
20
-50
30
0
40
1.5000000000000002
210
0
220
0
230
1
0
LWPOLYLINE
5
101
100
AcDbEntity
8
0
100
AcDbPolyline
90
4
70
1
43
0.0
10
102.59
20
-30.775909288800001
10
99.906718427000257
20
-29.434268502300142
10
108.85099033699942
20
-11.54572468230182
10
111.53427190999918
20
-12.887365468801697
0
LWPOLYLINE
5
102
100
AcDbEntity
8
0
100
AcDbPolyline
90
4
70
1
43
0.0
10
45
20
-30
10
41.999999999999993
20
-30
10
41.999999999999993
20
-10.000000000000004
10
45
20
-10.000000000000004
0
LWPOLYLINE
5
103
100
AcDbEntity
8
0
100
AcDbPolyline
90
4
70
1
43
0.0
10
75
20
-30
10
72
20
-30
10
72
20
-10.000000000000004
10
75
20
-10.000000000000004
0
LWPOLYLINE
5
104
100
AcDbEntity
8
0
100
AcDbPolyline
90
13
70
1
43
0.0
10
115.20101012677668
20
-8.9878066911802375
42
0.19891236737965795
10
104.59440840897847
20
-4.5944084089784543
10
4.5944084089784454
20
-4.5944084089784543
42
0.086012166937392359
10
-0.40559159102155073
20
-5.4609407651909292
10
-0.40559159102155462
20
-9.8864046704911956
10
2.5944084089784525
20
-9.8864046704911956
10
2.5944084089784525
20
-29.886404670491196
10
-0.40559159102155462
20
-29.886404670491196
10
-0.40559159102155462
20
-33.595122676510776
42
0.085164233174742518
10
4.5944084089784409
20
-34.452987052779818
10
98.239783617183406
20
-34.452987052779818
10
124.39339828220179
20
-60.60660171779822
42
0.99999998509883881
10
145.60660194131563
20
-39.393398505719205
0
LWPOLYLINE
5
105
100
AcDbEntity
8
0
100
AcDbPolyline
90
4
70
1
43
0.0
10
0
20
-65
10
53.000000000000007
20
-65
10
53.000000000000007
20
-45
10
0
20
-45
0
LWPOLYLINE
5
106
100
AcDbEntity
8
0
100
AcDbPolyline
90
4
70
1
43
0.0
10
58.000000000000007
20
-73
10
111.00000000000001
20
-73
10
111.00000000000001
20
-53
10
58.000000000000007
20
-53
0
LWPOLYLINE
5
107
100
AcDbEntity
8
0
100
AcDbPolyline
90
4
70
1
43
0.0
10
102.5869374240898
20
-105.62198826476454
10
99.903655851090036
20
-104.28034747826466
10
108.84792776108921
20
-86.391803658266326
10
111.53120933408894
20
-87.733444444766207
0
LWPOLYLINE
5
108
100
AcDbEntity
8
0
100
AcDbPolyline
90
4
70
1
43
0.0
10
120.85786437626906
20
-113.68629150101525
10
123.68629150101525
20
-110.85786437626906
10
137.03110327147724
20
-122.14962818204457
42
-1.1335782477209888
10
132.32661052961606
20
-127.25897957928802
0
LWPOLYLINE
5
109
100
AcDbEntity
8
0
100
AcDbPolyline
90
4
70
1
43
0.0
10
45.000000000000014
20
-105.00000000000007
10
42.000000000000014
20
-105.00000000000007
10
42.000000000000014
20
-85.000000000000071
10
45.000000000000014
20
-85.000000000000071
0
LWPOLYLINE
5
110
100
AcDbEntity
8
0
100
AcDbPolyline
90
4
70
1
43
0.0
10
75.000000000000014
20
-105
10
72.000000000000014
20
-105
10
72.000000000000014
20
-85
10
75.000000000000014
20
-85
0
LWPOLYLINE
5
111
100
AcDbEntity
8
0
100
AcDbPolyline
90
13
70
1
43
0.0
10
115.20101012677671
20
-83.987806691180253
42
0.19891236737965834
10
104.59440840897848
20
-79.594408408978452
10
4.5944084089784987
20
-79.594408408978452
42
0.085164233174742518
10
-0.40559159102150022
20
-80.452272785247487
10
-0.40559159102150133
20
-84.966891686415693
10
2.5944084089785053
20
-84.966891686415693
10
2.5944084089785058
20
-104.96689168641569
10
-0.40559159102150077
20
-104.96689168641569
10
-0.40559159102150133
20
-108.7365440327094
42
0.085164233174742685
10
4.594408408978504
20
-109.59440840897842
10
98.381204973382069
20
-109.59440840897844
10
124.39339828220182
20
-135.60660171779818
42
1.0000000149011612
10
145.6066014942808
20
-114.39339805868437
0
LWPOLYLINE
5
112
100
AcDbEntity
8
0
100
AcDbPolyline
90
4
70
1
43
0.0
10
38
20
-200
10
35
20
-200
10
35
20
-140
10
38
20
-140
0
LWPOLYLINE
5
113
100
AcDbEntity
8
0
100
AcDbPolyline
90
4
70
1
43
0.0
10
85
20
-140
10
85
20
-200
10
82
20
-200
10
82
20
-140
0
LWPOLYLINE
5
114
100
AcDbEntity
8
0
100
AcDbPolyline
90
4
70
1
43
0.0
10
62
20
-188
10
58.000000000000007
20
-188
10
56.548275862068962
20
-170.5793103448276
42
-1.1818181818181974
10
63.451724137931038
20
-170.5793103448276
0
CIRCLE
5
115
100
AcDbEntity
8
0
100
AcDbCircle
10
60
20
-169.99999999999997
30
0
40
50
210
0
220
-0
230
1
0
LWPOLYLINE
5
116
100
AcDbEntity
8
0
100
AcDbPolyline
90
4
70
1
43
0.0
10
155
20
-105
10
203.5
20
-105
10
203.5
20
-85
10
155
20
-85
0
LWPOLYLINE
5
117
100
AcDbEntity
8
0
100
AcDbPolyline
90
4
70
1
43
0.0
10
203.25000000000003
20
-126
10
180.35000000000002
20
-126
10
180.34999999999999
20
-113.99999999999999
10
203.25
20
-114
0
CIRCLE
5
118
100
AcDbEntity
8
0
100
AcDbCircle
10
205.5
20
-120
30
0
40
0.75000000000000178
210
0
220
0
230
1
0
CIRCLE
5
119
100
AcDbEntity
8
0
100
AcDbCircle
10
177.80000000000001
20
-120
30
0
40
0.74999999999999956
210
0
220
0
230
1
0
LWPOLYLINE
5
120
100
AcDbEntity
8
0
100
AcDbPolyline
90
4
70
1
43
0.0
10
160
20
-130
10
213
20
-130
10
213
20
-110
10
160
20
-110
0
CIRCLE
5
121
100
AcDbEntity
8
0
100
AcDbCircle
10
333.69999999999959
20
-60
30
0
40
0.74999999999999289
210
0
220
0
230
1
0
LWPOLYLINE
5
122
100
AcDbEntity
8
0
100
AcDbPolyline
90
4
70
1
43
0.0
10
247.99999999999983
20
-70
10
244.99999999999983
20
-70
10
244.99999999999986
20
-50
10
247.99999999999986
20
-50
0
LWPOLYLINE
5
123
100
AcDbEntity
8
0
100
AcDbPolyline
90
4
70
1
43
0.0
10
331.14999999999964
20
-54
10
331.14999999999964
20
-66
10
308.24999999999977
20
-66
10
308.24999999999966
20
-53.999999999999993
0
CIRCLE
5
124
100
AcDbEntity
8
0
100
AcDbCircle
10
305.99999999999972
20
-60
30
0
40
0.74999999999999289
210
0
220
0
230
1
0
LWPOLYLINE
5
125
100
AcDbEntity
8
0
100
AcDbPolyline
90
4
70
1
43
0.0
10
217.99999999999989
20
-70
10
214.99999999999994
20
-70
10
214.99999999999989
20
-50
10
217.99999999999986
20
-50
0
LWPOLYLINE
5
126
100
AcDbEntity
8
0
100
AcDbPolyline
90
4
70
1
43
0.0
10
192.99999999999997
20
-58
10
192.99999999999997
20
-62
10
175.5793103448276
20
-63.451724137931016
42
-1.1818181818181912
10
175.57931034482763
20
-56.548275862068962
0
LWPOLYLINE
5
127
100
AcDbEntity
8
0
100
AcDbPolyline
90
4
70
1
43
0.0
10
277.99999999999977
20
-50
10
277.99999999999977
20
-70
10
274.99999999999977
20
-70
10
274.99999999999977
20
-50
0
LWPOLYLINE
5
128
100
AcDbEntity
8
0
100
AcDbPolyline
90
4
70
1
43
0.0
10
175
20
-45
42
0.99999999999999989
10
175
20
-75
10
324.99999999999966
20
-75
42
0.99999999999999989
10
324.99999999999966
20
-45
0
LWPOLYLINE
5
129
100
AcDbEntity
8
0
100
AcDbPolyline
90
4
70
1
43
0.0
10
267.99999999999983
20
-30
10
264.99999999999983
20
-30
10
264.99999999999977
20
-10
10
267.99999999999977
20
-10
0
CIRCLE
5
130
100
AcDbEntity
8
0
100
AcDbCircle
10
165
20
-20
30
0
40
1.5000000000000004
210
0
220
0
230
1
0
LWPOLYLINE
5
131
100
AcDbEntity
8
0
100
AcDbPolyline
90
4
70
1
43
0.0
10
237.99999999999986
20
-30
10
234.99999999999986
20
-30
10
234.99999999999986
20
-10
10
237.99999999999986
20
-10
0
CIRCLE
5
132
100
AcDbEntity
8
0
100
AcDbCircle
10
314.99999999999972
20
-20
30
0
40
1.5000000000000038
210
0
220
0
230
1
0
LWPOLYLINE
5
133
100
AcDbEntity
8
0
100
AcDbPolyline
90
4
70
1
43
0.0
10
207.99999999999989
20
-30
10
204.99999999999989
20
-30
10
204.99999999999994
20
-10.000000000000002
10
207.99999999999994
20
-10.000000000000002
0
LWPOLYLINE
5
134
100
AcDbEntity
8
0
100
AcDbPolyline
90
4
70
1
43
0.0
10
314.99999999999972
20
-35
42
0.99999999999999989
10
314.99999999999972
20
-5
10
165
20
-5
42
0.99999999999999989
10
165
20
-35
0
LWPOLYLINE
5
135
100
AcDbEntity
8
0
100
AcDbPolyline
90
4
70
1
43
0.0
10
210
20
-105
10
263
20
-105
10
263
20
-85
10
210
20
-85
0
LWPOLYLINE
5
136
100
AcDbEntity
8
0
100
AcDbPolyline
90
4
70
1
43
0.0
10
267
20
-105
10
315.5
20
-105
10
315.5
20
-85
10
267
20
-85
0
LWPOLYLINE
5
137
100
AcDbEntity
8
0
100
AcDbPolyline
90
4
70
1
43
0.0
10
264.49999783731323
20
-118
10
264.49999783731323
20
-122.00000000000001
10
246.79302988156761
20
-123.48771160268768
42
-1.0875417685459909
10
246.7930298814284
20
-116.51228839801227
0
LWPOLYLINE
5
138
100
AcDbEntity
8
0
100
AcDbPolyline
90
4
70
1
43
0.0
10
220.00000000002902
20
-130
10
273
20
-130
10
273
20
-110
10
220
20
-110
0
LWPOLYLINE
5
139
100
AcDbEntity
8
0
100
AcDbPolyline
90
4
70
1
43
0.0
10
277
20
-130
10
325.5
20
-130
10
325.5
20
-110
10
276.99999999999994
20
-110
0
CIRCLE
5
140
100
AcDbEntity
8
0
100
AcDbCircle
10
291.30000000000001
20
-155
30
0
40
0.75000000000000067
210
0
220
0
230
1
0
LWPOLYLINE
5
141
100
AcDbEntity
8
0
100
AcDbPolyline
90
4
70
1
43
0.0
10
316.75
20
-161
10
293.85000000000002
20
-161
10
293.85000000000002
20
-149.00000000000003
10
316.75
20
-149
0
CIRCLE
5
142
100
AcDbEntity
8
0
100
AcDbCircle
10
319
20
-155
30
0
40
0.74999999999999956
210
0
220
0
230
1
0
LWPOLYLINE
5
143
100
AcDbEntity
8
0
100
AcDbPolyline
90
10
70
1
43
0.0
10
300
20
-140
42
0.99999999999999989
10
300
20
-170
10
320
20
-170
42
0.085164233174742518
10
325
20
-169.14213562373095
10
325.00000037252903
20
-164.99999985098839
10
322.00000037252903
20
-164.99999985098839
10
322.00000037252903
20
-144.99999985098839
10
325.00000037252903
20
-144.99999985098839
10
325
20
-140.85786437626905
42
0.085164233174742518
10
320
20
-140
0
CIRCLE
5
144
100
AcDbEntity
8
0
100
AcDbCircle
10
251
20
-155
30
0
40
1.5
210
0
220
0
230
1
0
LWPOLYLINE
5
145
100
AcDbEntity
8
0
100
AcDbPolyline
90
10
70
1
43
0.0
10
276
20
-140.85786437626905
42
0.085164233174741921
10
271.00000000000006
20
-140
10
251
20
-140
42
0.99999999999999989
10
251
20
-170
10
271
20
-170
42
0.085164233174742518
10
276
20
-169.14213562373095
10
276.00000037252903
20
-164.99999985098839
10
273.00000037252903
20
-164.99999985098839
10
273.00000037252903
20
-144.99999985098839
10
276.00000037252903
20
-144.99999985098839
0
LWPOLYLINE
5
146
100
AcDbEntity
8
0
100
AcDbPolyline
90
4
70
1
43
0.0
10
222.99999999999997
20
-153
10
222.99999999999997
20
-157
10
205.57931034482755
20
-158.45172413793102
42
-1.1335782477209713
10
205.29303204418468
20
-151.5122883976623
0
LWPOLYLINE
5
147
100
AcDbEntity
8
0
100
AcDbPolyline
90
10
70
1
43
0.0
10
230
20
-140.85786437626905
42
0.085164234738205002
10
224.99999990686774
20
-140
10
204.99999990686774
20
-140.00000000001162
42
0.99999999999999989
10
205.00000009313226
20
-169.99999999998838
10
224.99999959422064
20
-169.99999999998838
42
0.085164239986783782
10
229.99999999999613
20
-169.14213562372001
10
230.000000372529
20
-164.99999985098839
10
227.00000037252897
20
-164.99999985098839
10
227.00000037252903
20
-144.99999985098839
10
230.00000037252903
20
-144.99999985098839
0
LWPOLYLINE
5
148
100
AcDbEntity
8
0
100
AcDbPolyline
90
4
70
1
43
0.0
10
166.75
20
-166
10
143.85000000000002
20
-166
10
143.84999999999999
20
-154.00000000000003
10
166.74999999999997
20
-154
0
CIRCLE
5
149
100
AcDbEntity
8
0
100
AcDbCircle
10
169
20
-160
30
0
40
0.74999999999999967
210
0
220
0
230
1
0
CIRCLE
5
150
100
AcDbEntity
8
0
100
AcDbCircle
10
141.30000000000001
20
-160
30
0
40
0.75000000000000078
210
0
220
0
230
1
0
LWPOLYLINE
5
151
100
AcDbEntity
8
0
100
AcDbPolyline
90
8
70
1
43
0.0
10
180
20
-164.61880215351701
42
0.26794919243112308
10
175.99999999999997
20
-157.69059892324151
10
157.5
20
-147.00961894323342
42
0.26794919243112275
10
142.5
20
-147.00961894323342
10
124.00000000000003
20
-157.69059892324148
42
0.2679491924311212
10
120.00000000000001
20
-164.61880215351698
10
120.00000000000001
20
-180
10
180
20
-180
0
CIRCLE
5
152
100
AcDbEntity
8
0
100
AcDbCircle
10
150
20
-200.99999999999997
30
0
40
1.499999999999998
210
0
220
0
230
1
0
LWPOLYLINE
5
153
100
AcDbEntity
8
0
100
AcDbPolyline
90
8
70
1
43
0.0
10
179.99999999999994
20
-205.61880215351698
42
0.26794919243112308
10
175.99999999999994
20
-198.69059892324148
10
157.5
20
-188.00961894323342
42
0.26794919243112297
10
142.5
20
-188.00961894323339
10
124.00000000000004
20
-198.69059892324148
42
0.26794919243112192
10
120.00000000000003
20
-205.61880215351695
10
120.00000000000003
20
-220.99999999999997
10
179.99999999999994
20
-220.99999999999994
0
CIRCLE
5
154
100
AcDbEntity
8
0
100
AcDbCircle
10
205
20
-190.60962099972528
30
0
40
1.5
210
0
220
0
230
1
0
LWPOLYLINE
5
155
100
AcDbEntity
8
0
100
AcDbPolyline
90
10
70
1
43
0.0
10
230
20
-176.46748537599433
42
0.085164233174741921
10
225.00000000000003
20
-175.60962099972528
10
205
20
-175.60962099972528
42
0.99999999999999989
10
205
20
-205.60962099972528
10
225
20
-205.60962099972528
42
0.085164233174742518
10
230
20
-204.75175662345623
10
230.00000037252903
20
-200.60962085071367
10
227.00000037252903
20
-200.60962085071367
10
227.00000037252903
20
-180.60962085071367
10
230.00000037252903
20
-180.60962085071367
0
LWPOLYLINE
5
156
100
AcDbEntity
8
0
100
AcDbPolyline
90
4
70
1
43
0.0
10
240
20
-200
10
289.5
20
-200
10
289.5
20
-180
10
240
20
-180
0
ENDSEC
0
SECTION
2
OBJECTS
0
DICTIONARY
5
C
100
AcDbDictionary
3
ACAD_GROUP
350
D
3
ACAD_MLINESTYLE
350
17
0
DICTIONARY
5
D
100
AcDbDictionary
0
DICTIONARY
5
1A
330
C
100
AcDbDictionary
0
DICTIONARY
5
17
100
AcDbDictionary
0
ENDSEC
0
EOF
